<?xml version="1.0" encoding="UTF-8"?>
<svg id="Layer_2" data-name="Layer 2" xmlns="http://www.w3.org/2000/svg" viewBox="0 0 351.18 154.66">
  <g id="Layer_1-2" data-name="Layer 1">
    <path d="m340.03,72.18c-11.63,9.11-22.78,14.03-31.89,14.03-11.27,0-18.46-7.67-18.46-18.82,0-20.86,24.94-31.05,49.28-21.1-2.64-9.23-9.47-14.51-20.38-14.51-8.75,0-14.15,3.48-16.31,10.79l-11.63-1.2c3.48-11.51,14.63-18.58,29.25-18.58,19.42,0,31.29,12.35,31.29,32.37v29.85l-11.15.12v-12.95Zm0-15.47c-16.79-8.87-39.21-3.6-39.21,9.95,0,5.28,3.48,8.63,10.07,8.63,8.27,0,18.58-5.16,29.13-14.75v-3.84Z"/>
    <path d="m259.56,85.13h-11.15V25.18h11.15v10.19c5.64-6.47,14.03-10.19,24.1-10.19v8.99c-16.31,0-23.5,6.71-24.1,22.9v28.06Z"/>
    <path d="m200.68,87.52c-17.27,0-26.62-12.71-26.62-35.97v-26.38h11.15v26.38c0,20.86,3.6,26.98,16.31,26.98s18.34-6.35,18.94-21.58v-31.77h11.15v59.95h-11.15v-5.76c-4.8,5.28-11.51,8.15-19.78,8.15Z"/>
    <path d="m122.71,34.53v-9.35h10.79v-13.19h11.15v13.19h15.59v9.35h-15.59v35.61c0,6.23,2.04,8.03,9.35,8.03,0,0,1.44,0,3.96-1.2v9.35c-2.76,1.2-4.44,1.2-4.44,1.2-13.55,0-20.02-7.31-20.02-18.46v-34.53h-10.79Z"/>
    <path d="m77.97,87.52c-17.27,0-26.62-12.71-26.62-35.97v-26.38h11.15v26.38c0,20.86,3.6,26.98,16.31,26.98s18.34-6.35,18.94-21.58v-31.77h11.15v59.95h-11.15v-5.76c-4.8,5.28-11.51,8.15-19.78,8.15Z"/>
    <path d="m0,34.53v-9.35h9.59v-6.71C9.59,7.31,16.07,0,25.9,0c3.72,0,5.4,0,8.15,1.2v9.35c-2.52-1.2-3.96-1.2-3.96-1.2-7.31,0-9.35,1.8-9.35,8.03v7.79h16.79v9.35h-16.79v50.6h-11.15v-50.6H0Z"/>
    <path d="m348.23,130.01l-7.06,19.61c-.62,1.74-1.4,3.01-2.35,3.81-.93.82-2.11,1.23-3.54,1.23-.84,0-1.5-.13-1.99-.4-.49-.24-.73-.57-.73-.99,0-.44.19-.8.56-1.06.22.15.55.29.99.4.46.11.92.17,1.36.17.91,0,1.68-.4,2.32-1.19.66-.8,1.23-2.01,1.69-3.64l-6.49-17.92h2.39l5.27,14.68,5.2-14.68h2.39Z"/>
    <path d="m283.43,146.01c.15.11.28.28.36.5.11.2.17.41.17.63,0,.42-.18.72-.53.89-.71.35-1.62.53-2.75.53-1.44,0-2.58-.39-3.45-1.16-.86-.8-1.29-1.86-1.29-3.18v-12.42h-3.45v-1.79h3.45v-4.97h2.25v4.97h4.77v1.79h-4.77v11.99c0,1.86.8,2.78,2.39,2.78,1.02,0,1.97-.19,2.85-.56Z"/>
    <path d="m220.97,144.49c0,1.28.17,2.45.5,3.51-.46.27-.94.4-1.42.4s-.81-.19-1.03-.56c-.2-.4-.31-1.1-.33-2.12-.62.86-1.49,1.56-2.62,2.09-1.13.51-2.34.76-3.64.76-3.73,0-5.6-2.04-5.6-6.13v-12.42h2.25v12.19c0,1.61.3,2.78.89,3.51.6.71,1.55,1.06,2.85,1.06,1.17,0,2.26-.3,3.28-.89,1.04-.6,1.9-1.44,2.58-2.52v-13.35h2.29v14.48Z"/>
    <path d="m153.1,143.69c0,1.02.08,1.82.23,2.42.18.57.47,1.09.89,1.56-.22.22-.49.4-.8.53-.29.13-.56.2-.83.2-.44,0-.82-.25-1.13-.76-.29-.51-.47-1.2-.56-2.09-.68.93-1.6,1.67-2.75,2.22-1.15.53-2.35.8-3.61.8-1.68,0-3.03-.43-4.04-1.29-1.02-.88-1.52-2.03-1.52-3.45,0-2.08,1-3.7,3.01-4.87,2.03-1.17,4.98-1.84,8.85-2.02v-1.06c0-1.46-.38-2.54-1.13-3.25-.73-.73-1.84-1.09-3.35-1.09-.97,0-1.88.21-2.72.63-.82.4-1.7,1.07-2.65,2.02-.13.13-.3.2-.5.2-.22,0-.46-.09-.73-.27-.27-.2-.52-.47-.76-.83.99-1.17,2.12-2.07,3.38-2.68,1.28-.62,2.64-.93,4.07-.93,2.05,0,3.67.55,4.84,1.66,1.19,1.1,1.79,2.62,1.79,4.54v7.82Zm-8.38,3.01c1.19,0,2.32-.33,3.38-.99s1.98-1.6,2.75-2.82v-4.11c-6.36.27-9.54,1.93-9.54,5,0,1.94,1.14,2.92,3.41,2.92Z"/>
    <path d="m87.98,137.83c0,.51-.02,1.02-.07,1.52h-13.19c.04,2.3.55,4.09,1.52,5.37.99,1.28,2.36,1.92,4.11,1.92,1.19,0,2.2-.23,3.01-.7.84-.46,1.53-1.2,2.09-2.22.15-.29.39-.43.7-.43.35,0,.84.21,1.46.63-.49,1.44-1.38,2.57-2.68,3.41-1.3.82-2.83,1.23-4.57,1.23-1.61,0-3.03-.38-4.24-1.13-1.19-.77-2.11-1.87-2.75-3.28-.64-1.44-.96-3.13-.96-5.07,0-2.94.73-5.23,2.19-6.89,1.46-1.68,3.46-2.52,6-2.52,2.32,0,4.13.72,5.43,2.15,1.3,1.44,1.95,3.43,1.95,6Zm-2.32-.27c0-3.98-1.72-5.96-5.17-5.96-1.68,0-3,.51-3.98,1.52-.97,1.02-1.55,2.5-1.72,4.44h10.87Z"/>
    <path d="m13.69,129.68c2.45,0,4.34.8,5.67,2.39,1.35,1.59,2.02,3.84,2.02,6.76s-.7,5.43-2.09,7.16c-1.39,1.72-3.31,2.58-5.76,2.58s-4.17-.7-5.5-2.09c-.2,1.17-.59,1.76-1.16,1.76-.66,0-1.21-.13-1.66-.4.42-.93.63-2.25.63-3.98v-21.83h2.32v9.34c1.61-1.13,3.46-1.69,5.53-1.69Zm-.17,16.96c1.77,0,3.13-.67,4.07-2.02.97-1.37,1.46-3.3,1.46-5.8,0-2.34-.46-4.14-1.39-5.4-.93-1.26-2.25-1.89-3.98-1.89-2.03,0-3.88.63-5.53,1.89v10.77c1.3,1.63,3.09,2.45,5.37,2.45Z"/>
  </g>
</svg>