<svg xmlns="http://www.w3.org/2000/svg" width="80" height="80" viewBox="0 0 80 80" fill="none">
<path fill-rule="evenodd" clip-rule="evenodd" d="M37.2827 0C37.2122 0.0568821 37.1388 0.115145 37.0626 0.174812C31.8501 0.548063 26.8376 1.91665 22.0751 4.29301C14.1501 8.22458 7.80007 14.6569 3.93757 22.6445C-0.537432 31.9011 -1.22493 42.5761 2.01257 52.4548C4.73757 60.7285 10.5501 68.3179 17.8626 73.1079C22.7626 76.3179 28.2251 78.4454 33.4001 79.167C35.2126 79.4159 38.5001 79.6647 39.9626 79.6647C41.4251 79.6647 44.7126 79.4159 46.5251 79.167C54.2501 78.0846 62.3125 73.9789 68.2001 68.1064C74.7251 61.5869 78.6501 53.4003 79.7251 44.0193C79.9251 42.2526 79.9251 37.5745 79.7251 35.8078C78.4376 24.6103 72.9126 14.8062 64.1501 8.17481C57.8501 3.40965 50.2001 0.597822 42.1501 0.125038C42.1054 0.0818726 42.0648 0.0402063 42.0282 0H37.2827ZM68.9751 14.8436C62.8126 7.814 54.8001 3.44697 45.4001 2.00374C43.5251 1.71758 38.1876 1.59316 36.2751 1.79223C21.1376 3.335 8.38757 13.4128 3.61257 27.6087C2.07507 32.1499 1.48757 36.0939 1.62507 40.9586C1.75007 45.6492 2.55007 49.618 4.22507 53.9104C6.42507 59.5465 10.2251 64.9089 14.8376 68.8529C20.5876 73.7922 27.3376 76.8156 34.9626 77.8855C37.1626 78.1966 42.7626 78.1966 44.9626 77.8855C53.3751 76.7036 61.0126 72.9835 66.8501 67.223C68.5126 65.5807 69.2626 64.7222 70.7251 62.7813C73.9751 58.5014 76.3001 53.4252 77.4626 48.125C78.4751 43.4594 78.6126 38.3583 77.8251 33.6056C76.7001 26.7378 73.55 20.0566 68.9751 14.8436Z" fill="black"/>
<path d="M65.8178 27.1187C64.3612 27.4995 63.1762 28.4456 62.6084 29.7111C62.127 30.7554 62.0529 32.2543 62.4232 33.2372C62.9663 34.6747 63.6206 35.2644 65.5215 36.0261C67.1385 36.665 67.6076 36.923 68.0643 37.4268C68.6321 38.0534 68.6445 38.6431 68.1013 39.3188C67.6199 39.9208 67.3113 40.0929 66.6942 40.0929C66.0523 40.1051 65.3734 39.7857 64.5093 39.0854L63.8181 38.5325L61.5962 41.1863L62.0406 41.6163C64.139 43.619 67.0398 44.1104 69.3604 42.8572C71.4959 41.7023 72.6192 39.3065 72.0143 37.2302C71.5946 35.805 70.7182 34.8835 69.0271 34.0849C66.8423 33.0529 66.6078 32.93 66.1881 32.4632C65.8424 32.07 65.7684 31.898 65.7684 31.4311C65.7684 30.952 65.8301 30.8045 66.1881 30.4482C66.7682 29.8708 67.2743 29.8831 68.5828 30.5219L69.5949 31.0011L70.1381 30.4236C71.1379 29.3548 71.6317 28.765 71.6317 28.6299C71.6317 28.3964 70.3109 27.5978 69.4715 27.3275C68.4717 26.9958 66.7065 26.8975 65.8178 27.1187Z" fill="black"/>
<path d="M13.1346 27.303C13.0482 27.4381 6.87635 42.8204 6.80228 43.0784C6.74056 43.2873 6.87635 43.2995 8.46869 43.2995H10.1968L10.8017 41.7883L11.4065 40.2894L14.5542 40.2526L17.6895 40.228L18.9238 43.2995H20.7013C22.0592 43.2995 22.4542 43.2627 22.4048 43.1398C22.3678 43.0661 22.0962 42.3781 21.7876 41.6409C21.479 40.8915 20.1953 37.7462 18.9238 34.6378C17.6401 31.5294 16.4428 28.5807 16.2329 28.0893L15.8749 27.2047H14.5295C13.8012 27.2047 13.1717 27.2538 13.1346 27.303ZM15.517 34.9204C15.9984 36.0876 16.3934 37.0827 16.3934 37.1442C16.3934 37.2056 15.5663 37.2425 14.5418 37.2548C13.5296 37.2548 12.6903 37.2056 12.6903 37.1442C12.6903 36.8739 14.4801 32.6229 14.5542 32.6966C14.6035 32.758 15.0356 33.7532 15.517 34.9204Z" fill="black"/>
<path d="M23.5528 43.2995H27.009V40.1666C27.009 37.4513 27.0337 37.0336 27.1942 37.0336C27.3053 37.0336 28.2557 38.3605 29.4531 40.1666L31.5145 43.2995H35.5509L35.3287 42.9555C35.2176 42.7712 34.2054 41.2723 33.1068 39.6137L31.0824 36.6159L31.6996 36.2596C32.5513 35.7681 33.3413 34.859 33.687 33.9375C33.9338 33.2863 33.9832 32.9423 33.9832 31.812C33.9832 30.5834 33.9462 30.3991 33.6376 29.7725C33.0328 28.5439 31.7367 27.6101 30.2184 27.3275C29.8604 27.2661 28.2187 27.2047 26.5646 27.2047H23.5528V43.2995ZM29.2803 30.3376C29.4901 30.4237 29.8357 30.6817 30.0332 30.8905C30.3665 31.2468 30.4035 31.3451 30.4035 32.1191C30.4035 33.1266 30.1813 33.5075 29.3543 33.9252C28.9346 34.1464 28.6013 34.2078 27.9101 34.2078H27.009V30.0059L27.9471 30.0919C28.4656 30.1411 29.0581 30.2516 29.2803 30.3376Z" fill="black"/>
<path d="M35.5262 30.6325L39.1676 30.7062L39.2046 36.9967L39.2293 43.2995H42.6856V30.6448H46.3887V27.2047H35.5262V30.6325Z" fill="black"/>
<path d="M52.2396 30.7677C51.4126 30.9397 50.5609 31.4311 49.9313 32.1069C49.0673 33.0283 48.8204 33.6672 48.8081 35.0064C48.7957 36.0261 48.8328 36.1859 49.2031 36.9353C49.6474 37.8568 50.5732 38.7782 51.2645 38.9994L51.6965 39.1468V43.2995H52.5359L53.3629 43.2873L52.7828 42.7958L52.1903 42.2921V39.368H53.5481V43.2995H54.3874L55.2145 43.2873L54.6467 42.7712L54.0665 42.2552L54.0912 40.7932L54.1035 39.3434L54.7454 39.0977C56.0415 38.6185 57.3006 37.0459 57.461 35.6821C57.4981 35.3504 57.5968 35.0678 57.6709 35.0555C57.7449 35.0555 58.3621 34.7852 59.041 34.4658L60.2754 33.8883L58.609 33.2986C57.066 32.7703 56.8809 32.672 56.3254 32.0946C55.2762 31.0134 53.6221 30.4728 52.2396 30.7677ZM55.4613 34.1464C56.3007 34.9695 55.2145 36.2473 54.1653 35.6821C54.0418 35.6207 53.869 35.375 53.7949 35.1415C53.6838 34.7975 53.6962 34.6501 53.8443 34.3552C54.0665 33.9375 54.1899 33.8638 54.7578 33.8515C55.0293 33.8392 55.2638 33.9375 55.4613 34.1464Z" fill="black"/>
<path d="M54.3628 34.6501C54.264 34.8958 54.4985 35.1907 54.7824 35.1907C55.0293 35.1907 55.1774 34.9081 55.0787 34.6378C54.9799 34.3921 54.4615 34.4044 54.3628 34.6501Z" fill="black"/>
<path d="M39.1059 45.9411C37.7974 46.3097 36.7482 47.1697 36.2298 48.3246C36.0199 48.7669 35.9706 49.1355 35.9582 50.0569C35.9582 51.089 35.9953 51.3101 36.3162 51.9859C36.7235 52.8705 37.4024 53.5462 38.3035 53.9885C38.8467 54.2588 39.0935 54.2957 40.2168 54.2957C41.4265 54.2957 41.5746 54.2711 42.3153 53.9025C42.7596 53.6814 43.2781 53.3496 43.4632 53.153L43.7965 52.7967L43.2904 52.2316L42.7843 51.6541L42.3646 52.0227C41.7228 52.5756 41.229 52.7845 40.402 52.8459C39.7601 52.895 39.5749 52.8582 38.9948 52.551C38.0443 52.0596 37.5876 51.3716 37.5259 50.3764C37.4642 49.4303 37.637 48.8283 38.1554 48.2632C39.1799 47.0837 41.0809 47.0223 42.377 48.1157L42.7596 48.4352L43.2781 47.956C43.562 47.6857 43.7965 47.4277 43.7965 47.3786C43.7965 47.182 42.5498 46.3465 41.9326 46.1131C41.0562 45.7814 39.9453 45.7199 39.1059 45.9411Z" fill="black"/>
<path d="M22.9479 49.8358C22.5899 51.949 22.2813 53.7919 22.2813 53.9271C22.2567 54.1237 22.3431 54.1851 22.7381 54.2097C23.7503 54.2957 23.7009 54.3939 24.1699 51.6664C24.4045 50.3149 24.6143 49.2338 24.6513 49.2706C24.7007 49.3075 25.0957 50.4255 25.5401 51.7524L26.3548 54.1728L27.7373 54.1974L28.5767 51.7033C29.0334 50.3272 29.4407 49.2706 29.4901 49.3566C29.5518 49.4795 30.3418 53.9148 30.3418 54.1605C30.3418 54.1974 30.6751 54.2342 31.0824 54.2342C31.6379 54.2342 31.8231 54.1974 31.8231 54.0622C31.8231 53.8779 30.6381 46.7765 30.527 46.2728C30.4653 46.0148 30.4035 45.9902 29.6999 46.0271L28.947 46.0639L28.0212 48.8037C27.5151 50.3149 27.0584 51.5067 27.009 51.4453C26.9596 51.3961 26.6263 50.4378 26.2684 49.3198C25.9104 48.2017 25.5154 46.9977 25.3796 46.6414L25.1451 46.0025H23.6145L22.9479 49.8358Z" fill="black"/>
<path d="M48.3884 50.0815L48.4254 54.1728L49.0056 54.1974C49.3635 54.2219 49.6474 54.1605 49.7585 54.0622C49.8449 53.9639 50.5609 52.8213 51.3385 51.519L52.7457 49.1355L52.8692 54.1728H54.3504L54.3874 50.0815L54.4121 46.0025H53.7085L52.9926 46.0148L50.0301 51.1258L49.9931 48.558L49.9684 46.0025H48.3637L48.3884 50.0815Z" fill="black"/>
<path d="M33.1809 52.8827C32.8229 53.239 32.8599 53.7919 33.2549 54.0991C33.687 54.4308 33.9832 54.4185 34.3535 54.0499C34.9213 53.4971 34.5881 52.637 33.7981 52.637C33.5882 52.637 33.3167 52.7476 33.1809 52.8827Z" fill="black"/>
<path d="M45.2778 52.8827C44.9198 53.239 44.9568 53.7919 45.3518 54.0991C45.7838 54.4308 46.0801 54.4185 46.4504 54.0499C47.0182 53.4971 46.6849 52.637 45.8949 52.637C45.6851 52.637 45.4135 52.7476 45.2778 52.8827Z" fill="black"/>
<path d="M56.276 52.9565C55.9428 53.3865 55.9551 53.6814 56.3254 54.0499C56.6587 54.394 56.8809 54.4308 57.2882 54.2219C57.6585 54.0254 57.7449 53.8779 57.7449 53.4233C57.7449 52.6493 56.7698 52.3422 56.276 52.9565Z" fill="black"/>
</svg>