<svg width="117" height="100" viewBox="0 0 117 100" fill="none" xmlns="http://www.w3.org/2000/svg">
<path fill-rule="evenodd" clip-rule="evenodd" d="M37.4308 44.6025C34.9949 44.3447 33.236 43.6481 32.1864 42.7227L33.2374 41.5308C33.9472 42.1566 35.341 42.7834 37.598 43.0222C39.839 43.2593 42.867 43.1062 46.7655 42.2421C54.5635 40.5135 65.7692 35.9568 80.9762 26.1356L81.8383 27.4705C66.5341 37.3545 55.1515 42.0109 47.1094 43.7935C43.0877 44.685 39.8827 44.862 37.4308 44.6025Z" fill="black"/>
<path d="M96.0499 31.2299C96.0499 36.6211 91.6794 40.9916 86.2881 40.9916C80.8969 40.9916 76.5264 36.6211 76.5264 31.2299C76.5264 25.8386 80.8969 21.4681 86.2881 21.4681C91.6794 21.4681 96.0499 25.8386 96.0499 31.2299Z" fill="black"/>
<path fill-rule="evenodd" clip-rule="evenodd" d="M104.286 16.9046C100.737 21.2613 95.9619 25.8576 91.3438 29.7915L90.3133 28.5818C94.8894 24.6836 99.5869 20.1567 103.054 15.9009C104.788 13.772 106.197 11.7318 107.131 9.8884C108.074 8.02789 108.486 6.4581 108.353 5.2371C108.229 4.09299 107.617 3.1606 106.218 2.50973C104.764 1.833 102.47 1.47417 99.0827 1.6315C92.3236 1.94549 81.5743 4.29275 65.4245 9.62309L64.9265 8.11403C81.1041 2.77451 92.0236 0.368585 99.009 0.0440858C102.494 -0.117827 105.091 0.232771 106.889 1.0689C108.742 1.93089 109.743 3.31481 109.933 5.06518C110.115 6.73866 109.545 8.64153 108.549 10.6066C107.545 12.5888 106.06 14.7272 104.286 16.9046Z" fill="black"/>
<path fill-rule="evenodd" clip-rule="evenodd" d="M23.5059 30.4633C32.9685 23.2908 45.409 17.0965 53.977 13.5819L54.5801 15.0521C46.084 18.5373 33.7796 24.6701 24.4658 31.7297C19.8042 35.2632 15.9456 38.9889 13.6719 42.6873C11.4067 46.3717 10.7683 49.9259 12.3194 53.2556C12.3684 53.3607 12.3938 53.4752 12.3938 53.5912C12.3938 53.6821 12.4338 53.8809 12.8954 54.1468C13.3575 54.413 14.0928 54.6484 15.101 54.823C17.1028 55.1697 19.9345 55.2369 23.157 55.0399C29.5997 54.646 37.4 53.21 42.8609 51.0368L43.4485 52.5133C37.7855 54.7669 29.8081 56.2254 23.254 56.626C19.9781 56.8263 17.0067 56.7658 14.8299 56.3889C13.7488 56.2016 12.801 55.9263 12.1023 55.5238C11.4543 55.1506 10.8928 54.5841 10.814 53.7848C9.04545 49.8482 9.91461 45.7644 12.3181 41.855C14.742 37.9125 18.7794 34.0459 23.5059 30.4633Z" fill="black"/>
<path fill-rule="evenodd" clip-rule="evenodd" d="M88.7913 16.3418C88.8054 17.8723 88.2659 19.472 87.5589 20.8163L86.1524 20.0766C86.7886 18.867 87.213 17.5324 87.2023 16.3564C87.1918 15.2176 86.7817 14.2574 85.7487 13.6075C84.6608 12.9231 82.7664 12.5077 79.6308 12.8187C76.5126 13.1279 72.2687 14.1453 66.5804 16.1994C55.186 20.314 47.5896 24.3622 42.7306 27.7312C40.3008 29.4158 38.5642 30.9247 37.3809 32.1796C36.1844 33.4487 35.5955 34.4142 35.3934 35.0056L33.8896 34.4916C34.1983 33.5885 34.963 32.4276 36.2247 31.0895C37.4996 29.7373 39.3257 28.1582 41.8251 26.4253C46.8243 22.9591 54.5517 18.8535 66.0407 14.7047C71.7941 12.6271 76.175 11.5644 79.474 11.2373C82.7558 10.9119 85.0711 11.3038 86.5949 12.2625C88.1735 13.2556 88.7769 14.7742 88.7913 16.3418ZM73.6494 24.8807C71.148 27.5464 65.8552 30.8509 61.8108 33.0621L61.0485 31.6677C65.1011 29.4521 70.183 26.2525 72.4906 23.7933C73.0666 23.1794 73.4067 22.6758 73.5437 22.2996C73.6664 21.9624 73.5953 21.8501 73.5213 21.7716C73.3726 21.6139 72.9641 21.3832 72.0195 21.2511C71.1056 21.1232 69.8176 21.1046 68.0741 21.2387L67.9522 19.6542C69.7502 19.5159 71.1656 19.527 72.2396 19.6772C73.2829 19.8231 74.1467 20.1186 74.6774 20.6813C75.2828 21.3233 75.2982 22.1256 75.0369 22.8432C74.7899 23.5218 74.2756 24.2133 73.6494 24.8807ZM47.0945 31.0055C48.2044 29.9598 49.5378 28.9273 50.7613 28.0795L51.6664 29.3857C50.4872 30.2028 49.2204 31.1859 48.1842 32.1621C47.1173 33.1674 46.4025 34.0673 46.1785 34.7137C46.074 35.015 46.1161 35.1441 46.1431 35.1941C46.1741 35.2515 46.2966 35.4095 46.7581 35.5447C47.711 35.8237 49.5724 35.8474 52.7894 35.3264L53.0435 36.895C49.8132 37.4183 47.6375 37.4581 46.3115 37.0698C45.6335 36.8712 45.056 36.5248 44.7452 35.9499C44.4304 35.3676 44.4886 34.7367 44.677 34.1933C45.0385 33.1502 46.0154 32.0222 47.0945 31.0055Z" fill="black"/>
<path d="M41.3386 34.1812C41.3386 37.441 38.6959 40.0836 35.4361 40.0836C32.1763 40.0836 29.5336 37.441 29.5336 34.1812C29.5336 30.9213 32.1763 28.2787 35.4361 28.2787C38.6959 28.2787 41.3386 30.9213 41.3386 34.1812Z" fill="black"/>
<path d="M71.986 21.0141C71.986 23.2709 70.1565 25.1004 67.8997 25.1004C65.6428 25.1004 63.8133 23.2709 63.8133 21.0141C63.8133 18.7572 65.6428 16.9277 67.8997 16.9277C70.1565 16.9277 71.986 18.7572 71.986 21.0141Z" fill="black"/>
<path fill-rule="evenodd" clip-rule="evenodd" d="M84.7067 51.4875C85.0329 51.918 85.1712 52.4559 85.1527 53.0484L85.1526 53.05C85.1049 54.4825 85.522 55.5906 86.0453 56.981C86.076 57.0624 86.107 57.1447 86.1382 57.2282C86.6975 58.7195 87.2993 60.455 87.3096 62.9473C87.5496 64.4886 87.1089 66.4374 86.3394 68.4659C85.5469 70.5548 84.3579 72.8489 82.994 75.0887C80.3307 79.4621 76.9312 83.7398 74.3598 85.9591C72.6934 90.4661 72.9752 96.1285 73.3383 98.4161L71.7688 98.6652C71.3803 96.2172 71.0594 90.1097 72.9471 85.2019C72.9953 85.0765 73.0745 84.9654 73.1773 84.879C75.5827 82.8563 78.9639 78.6512 81.6367 74.2621C82.9686 72.075 84.1066 69.8713 84.8536 67.9023C85.612 65.903 85.9218 64.2613 85.7319 63.1457C85.7244 63.1016 85.7206 63.057 85.7206 63.0123C85.7206 60.7722 85.1929 59.2331 84.6503 57.7861C84.6133 57.6874 84.5759 57.5886 84.5385 57.4896C84.0294 56.1425 83.5059 54.7572 83.5643 52.9981C83.5741 52.6829 83.4996 52.5258 83.4401 52.4473C83.38 52.368 83.2749 52.2895 83.0797 52.2415C82.6553 52.1371 81.9746 52.2262 81.2546 52.5546C80.545 52.8783 79.9485 53.3667 79.6468 53.8757C79.3735 54.3367 79.3381 54.7962 79.6811 55.3016C79.723 55.3634 79.756 55.4308 79.7791 55.5018C80.2277 56.8797 80.2951 58.9149 80.0158 60.8604C79.7378 62.7975 79.0895 64.8348 77.9457 66.1339C77.3604 66.7987 76.6151 67.3025 75.7021 67.4516C74.7883 67.6009 73.8169 67.3768 72.8142 66.7943C70.8487 65.6523 68.5845 63.0314 65.9602 58.4103L67.342 57.6256C69.9391 62.1988 72.0308 64.5012 73.6125 65.4202C74.3834 65.8681 74.9834 65.9588 75.4459 65.8833C75.9092 65.8076 76.3451 65.547 76.753 65.0838C77.5955 64.1269 78.1817 62.4539 78.4428 60.6346C78.6951 58.8771 78.6189 57.1606 78.298 56.0896C77.638 55.0381 77.7546 53.9513 78.2798 53.0653C78.7939 52.198 79.6872 51.5229 80.5951 51.1088C81.4927 50.6994 82.5571 50.4764 83.4593 50.6983C83.9275 50.8135 84.381 51.0578 84.7067 51.4875Z" fill="black"/>
<path fill-rule="evenodd" clip-rule="evenodd" d="M54.8712 54.5241C57.7526 40.7231 57.9467 27.0494 57.6849 21.963L59.272 21.8813C59.5396 27.0815 59.3408 40.9163 56.4185 54.8889C56.4127 54.9164 56.4055 54.9435 56.3969 54.9702C55.9967 56.2108 55.9783 58.3638 56.1632 60.6702C56.3447 62.9354 56.7086 65.2085 56.9874 66.6024L56.9886 66.6087C57.6015 69.807 58.3327 75.2563 58.5461 81.2563C58.7591 87.2472 58.4584 93.8466 56.9751 99.3162L55.4414 98.9003C56.864 93.6547 57.1687 87.2384 56.9579 81.3128C56.7476 75.3981 56.0263 70.0316 55.4285 66.9108C55.1398 65.4667 54.7663 63.133 54.5791 60.7972C54.3967 58.521 54.377 56.0997 54.8712 54.5241Z" fill="black"/>
<path fill-rule="evenodd" clip-rule="evenodd" d="M71.0568 57.6985C70.2323 58.5195 69.4217 59.7131 68.9291 60.5705L67.5512 59.7789C68.0803 58.8579 68.9723 57.5316 69.9355 56.5724C70.4108 56.0992 70.9611 55.6562 71.5438 55.4297C72.1651 55.1882 72.9039 55.1741 73.5279 55.7149C75.0776 57.058 75.7759 59.1392 75.9448 60.026C75.9689 60.1527 75.9618 60.2835 75.9241 60.4069C75.7352 61.0253 75.5304 62.0557 75.5416 63.0832C75.5532 64.1388 75.7896 65.0113 76.2936 65.5153L75.1699 66.639C74.221 65.69 73.9656 64.2924 73.9526 63.1005C73.9404 61.9865 74.1377 60.8938 74.3451 60.1461C74.1568 59.3674 73.5721 57.8561 72.4872 56.9158C72.4301 56.8664 72.3602 56.8173 72.1196 56.9109C71.8402 57.0194 71.4755 57.2816 71.0568 57.6985Z" fill="black"/>
<path fill-rule="evenodd" clip-rule="evenodd" d="M65.0622 33.2696C65.0992 31.3773 64.8614 28.5459 63.9976 26.1864C63.1442 23.8552 61.5265 21.6412 58.6588 21.8099L58.7521 23.3963C60.5156 23.2926 61.7167 24.5785 62.5054 26.7327C63.2807 28.8506 63.5097 31.4788 63.473 33.2566C63.4728 33.2695 63.4728 33.2825 63.4732 33.2955L64.0407 53.2731L65.6292 53.228L65.0622 33.2696Z" fill="black"/>
<path fill-rule="evenodd" clip-rule="evenodd" d="M77.7638 49.8085C78.5899 51.2534 79.2616 52.9777 79.5621 54.0595L78.031 54.4848C77.7639 53.5234 77.1416 51.9219 76.3843 50.5972C76.0044 49.9328 75.6136 49.3791 75.245 49.0125C74.8493 48.6191 74.6282 48.5858 74.5664 48.5923C73.636 48.6903 72.3803 49.1193 70.8096 49.9874C69.2482 50.8502 67.4175 52.1234 65.3452 53.8596L64.3246 52.6415C66.4522 50.859 68.3673 49.5214 70.0409 48.5965C71.7052 47.6768 73.1737 47.141 74.4 47.0119C75.2009 46.9276 75.8794 47.4023 76.3655 47.8857C76.8787 48.396 77.352 49.0881 77.7638 49.8085Z" fill="black"/>
<path d="M49.5112 49.6183C49.5112 50.1199 49.1047 50.5264 48.6031 50.5264C48.1016 50.5264 47.6951 50.1199 47.6951 49.6183C47.6951 49.1168 48.1016 48.7103 48.6031 48.7103C49.1047 48.7103 49.5112 49.1168 49.5112 49.6183Z" fill="black"/>
<path d="M60.8621 11.9333C60.8621 12.4348 60.4556 12.8414 59.9541 12.8414C59.4525 12.8414 59.046 12.4348 59.046 11.9333C59.046 11.4318 59.4525 11.0252 59.9541 11.0252C60.4556 11.0252 60.8621 11.4318 60.8621 11.9333Z" fill="black"/>
<path d="M92.6447 7.39294C92.6447 7.89445 92.2381 8.30101 91.7366 8.30101C91.2351 8.30101 90.8285 7.89445 90.8285 7.39294C90.8285 6.89142 91.2351 6.48486 91.7366 6.48486C92.2381 6.48486 92.6447 6.89142 92.6447 7.39294Z" fill="black"/>
<path d="M116.028 15.3385C116.028 15.84 115.621 16.2466 115.119 16.2466C114.618 16.2466 114.211 15.84 114.211 15.3385C114.211 14.837 114.618 14.4304 115.119 14.4304C115.621 14.4304 116.028 14.837 116.028 15.3385Z" fill="black"/>
<path d="M104.677 36.9053C104.677 37.4068 104.27 37.8134 103.769 37.8134C103.267 37.8134 102.86 37.4068 102.86 36.9053C102.86 36.4038 103.267 35.9973 103.769 35.9973C104.27 35.9973 104.677 36.4038 104.677 36.9053Z" fill="black"/>
<path d="M36.3442 65.2826C36.3442 65.7841 35.9376 66.1907 35.4361 66.1907C34.9346 66.1907 34.528 65.7841 34.528 65.2826C34.528 64.7811 34.9346 64.3745 35.4361 64.3745C35.9376 64.3745 36.3442 64.7811 36.3442 65.2826Z" fill="black"/>
<path d="M38.1603 11.9333C38.1603 12.4348 37.7538 12.8414 37.2522 12.8414C36.7507 12.8414 36.3442 12.4348 36.3442 11.9333C36.3442 11.4318 36.7507 11.0252 37.2522 11.0252C37.7538 11.0252 38.1603 11.4318 38.1603 11.9333Z" fill="black"/>
<path fill-rule="evenodd" clip-rule="evenodd" d="M78.662 36.4514C76.8347 37.617 74.7045 38.9099 73.3002 39.7449L72.488 38.379C73.8836 37.5492 75.9986 36.2654 77.8074 35.1116C78.7128 34.5341 79.5338 33.994 80.1474 33.5619C80.4552 33.3451 80.7011 33.1624 80.8762 33.0198C80.9641 32.9483 81.0252 32.894 81.064 32.8561C81.0814 32.8391 81.0902 32.8293 81.093 32.8262C81.0892 32.8307 81.075 32.8488 81.0579 32.8788L82.4377 33.6672C82.3578 33.8069 82.2481 33.921 82.1745 33.9928C82.0887 34.0766 81.9876 34.1641 81.8796 34.2521C81.663 34.4285 81.3829 34.6355 81.0624 34.8612C80.4193 35.314 79.5746 35.8693 78.662 36.4514ZM81.0939 32.8251C81.0939 32.8251 81.0936 32.8254 81.093 32.8262C81.0936 32.8254 81.0939 32.8251 81.0939 32.8251Z" fill="black"/>
<path fill-rule="evenodd" clip-rule="evenodd" d="M103.625 51.1649L102.081 49.5955C102.024 49.5373 101.983 49.5272 101.958 49.5238C101.923 49.519 101.872 49.5243 101.818 49.5516C101.763 49.5788 101.728 49.6163 101.711 49.6472C101.699 49.669 101.682 49.7077 101.695 49.7884L102.021 51.9655C102.211 53.2299 101.565 54.4727 100.421 55.0437L98.451 56.0271C98.378 56.0635 98.3558 56.0992 98.345 56.1217C98.3296 56.1536 98.3189 56.2035 98.3279 56.2639C98.337 56.3242 98.3619 56.3689 98.3859 56.3949C98.4029 56.4131 98.4346 56.4407 98.5151 56.4541L100.687 56.8163C101.948 57.0267 102.93 58.0252 103.12 59.2896L103.446 61.4668C103.458 61.5474 103.485 61.5796 103.503 61.5969C103.529 61.6213 103.573 61.647 103.633 61.657C103.694 61.6671 103.744 61.6572 103.776 61.6423C103.798 61.6319 103.834 61.6102 103.872 61.5378L104.888 59.5845C105.477 58.4501 106.731 57.8245 107.992 58.0348L110.163 58.397C110.244 58.4104 110.283 58.3947 110.305 58.3829C110.336 58.3661 110.374 58.332 110.402 58.2778C110.43 58.2237 110.436 58.1729 110.432 58.1378C110.429 58.113 110.42 58.072 110.362 58.0139L108.818 56.4445C107.922 55.533 107.714 54.1479 108.304 53.0135L109.319 51.0602C109.357 50.9878 109.354 50.9458 109.35 50.9213C109.343 50.8865 109.323 50.8397 109.28 50.7962C109.237 50.7527 109.191 50.7313 109.156 50.7244C109.131 50.7195 109.09 50.7159 109.017 50.7523L107.047 51.7357C105.903 52.3068 104.521 52.0763 103.625 51.1649ZM103.052 48.6402C101.972 47.5428 100.119 48.468 100.347 49.9904L100.674 52.1676C100.776 52.8484 100.428 53.5176 99.8123 53.8251L97.8426 54.8084C96.4653 55.496 96.7725 57.5444 98.291 57.7977L100.462 58.1599C101.142 58.2732 101.67 58.8108 101.773 59.4916L102.099 61.6688C102.328 63.1912 104.371 63.532 105.081 62.1661L106.096 60.2128C106.414 59.602 107.089 59.2651 107.768 59.3784L109.939 59.7406C111.458 59.9938 112.413 58.1561 111.333 57.0587L109.79 55.4892C109.307 54.9985 109.195 54.2526 109.512 53.6418L110.528 51.6885C111.238 50.3226 109.785 48.846 108.408 49.5337L106.438 50.517C105.822 50.8245 105.079 50.7004 104.596 50.2097L103.052 48.6402Z" fill="black"/>
<path fill-rule="evenodd" clip-rule="evenodd" d="M8.84934 22.6806L7.01581 21.4621C6.94787 21.4169 6.90584 21.4154 6.88099 21.4172C6.84568 21.4197 6.797 21.4353 6.74917 21.4732C6.70134 21.5111 6.67502 21.555 6.66448 21.5888C6.65706 21.6125 6.64894 21.6538 6.67737 21.7303L7.44447 23.7938C7.88998 24.9922 7.51313 26.3412 6.51103 27.1353L4.78553 28.5025C4.72159 28.5532 4.70714 28.5927 4.70117 28.6169C4.69267 28.6512 4.69246 28.7023 4.71373 28.7595C4.73499 28.8167 4.76854 28.8553 4.79742 28.8758C4.81774 28.8902 4.85448 28.9107 4.93599 28.9073L7.13559 28.8154C8.41303 28.762 9.57955 29.5373 10.0251 30.7357L10.7922 32.7992C10.8206 32.8757 10.8537 32.9016 10.8748 32.9148C10.9049 32.9335 10.9535 32.9495 11.0144 32.947C11.0754 32.9444 11.1225 32.9244 11.1508 32.9033C11.1708 32.8884 11.2017 32.8598 11.2236 32.7812L11.8159 30.6609C12.1599 29.4295 13.2577 28.5596 14.5351 28.5062L16.7347 28.4144C16.8163 28.4109 16.8512 28.3875 16.8702 28.3714C16.8973 28.3486 16.9275 28.3074 16.9439 28.2486C16.9603 28.1898 16.9559 28.1389 16.9445 28.1054C16.9366 28.0818 16.9189 28.0436 16.8509 27.9985L15.0174 26.7799C13.9526 26.0722 13.4645 24.7594 13.8085 23.528L14.4008 21.4076C14.4228 21.329 14.4113 21.2886 14.4019 21.2655C14.3885 21.2327 14.3587 21.1912 14.3078 21.1575C14.257 21.1237 14.2072 21.1122 14.1718 21.1126C14.1469 21.1129 14.1051 21.1179 14.0412 21.1686L12.3157 22.5358C11.3136 23.3299 9.91418 23.3883 8.84934 22.6806ZM7.76975 20.3277C6.48764 19.4756 4.86422 20.7619 5.40062 22.2049L6.16773 24.2684C6.40762 24.9137 6.2047 25.6401 5.66511 26.0677L3.9396 27.4349C2.73304 28.391 3.45476 30.3324 4.99284 30.2682L7.19245 30.1763C7.8803 30.1476 8.50842 30.565 8.74831 31.2103L9.51542 33.2739C10.0518 34.7168 12.1213 34.6304 12.5355 33.1477L13.1278 31.0274C13.313 30.3643 13.9041 29.8959 14.592 29.8672L16.7916 29.7753C18.3297 29.711 18.887 27.7161 17.6049 26.864L15.7713 25.6455C15.198 25.2644 14.9352 24.5575 15.1204 23.8944L15.7127 21.7741C16.1269 20.2914 14.4018 19.145 13.1953 20.101L11.4698 21.4682C10.9302 21.8958 10.1766 21.9273 9.60327 21.5462L7.76975 20.3277Z" fill="black"/>
</svg>
