<?xml version="1.0" encoding="utf-8"?><!--Generator: Adobe Illustrator 22.1.0, SVG Export Plug-In . SVG Version: 6.00 Build 0)--><svg version="1.1" id="Livello_1" xmlns="http://www.w3.org/2000/svg" xmlns:xlink="http://www.w3.org/1999/xlink" x="0px" y="0px" viewBox="0 0 400 126" style="enable-background:new 0 0 400 126;" xml:space="preserve"><path d="M378,107.8l-1.8,2.1c0,0,2.2,2.1,6.2,2.1c3.7,0,5.9-2.1,5.9-4.6c0-5-8.5-4.3-8.5-7.1c0-1.1,1.2-1.9,2.7-1.9
	c2.3,0,4,1.4,4,1.4l1.4-2.3c0,0-1.8-1.7-5.4-1.7c-3.4,0-6,1.9-6,4.5c0,4.8,8.5,4.3,8.5,7.1c0,1.3-1.2,1.9-2.6,1.9
	C380,109.5,378,107.8,378,107.8 M328.3,103.9c0,4.6,3.8,8.2,9.3,8.2c4.6,0,7.1-2.5,7.1-2.5l-1.7-2.1c0,0-2.1,2-5.2,2
	c-3.7,0-6-2.6-6-5.6c0-2.9,2.2-5.4,6-5.4c2.9,0,4.9,1.7,4.9,1.7l1.6-2.1c0,0-2.2-2.1-6.6-2.1C332.2,95.9,328.3,99.4,328.3,103.9
	 M295.2,96.2h-3.3v15.6h3.3V96.2z M259.8,96.2h-15.1v2.4h5.9v13.2h3.3V98.6h5.9V96.2z M213.1,96.2h-10.8v15.7h11.2v-2.4h-7.9v-4.2h6
	v-2.4h-6v-4.1h7.5V96.2z M151.4,96.2l-1.5,15.7h3.3l0.8-8.7c0.1-1,0-2.4,0-2.4h0c0,0,0.6,1.5,1,2.4l2.9,6.1h2.9l2.9-6.1
	c0.4-0.9,1-2.4,1-2.4h0.1c0,0-0.1,1.4,0,2.4l0.8,8.7h3.2l-1.4-15.7h-3.5l-3.5,7.7c-0.4,0.9-0.9,2.3-0.9,2.3h0c0,0-0.5-1.4-0.9-2.3
	l-3.5-7.7H151.4z M107.2,107.8l-1.8,2.1c0,0,2.2,2.1,6.2,2.1c3.7,0,5.9-2.1,5.9-4.6c0-5-8.4-4.3-8.4-7.1c0-1.1,1.2-1.9,2.7-1.9
	c2.3,0,4,1.4,4,1.4l1.4-2.3c0,0-1.8-1.7-5.4-1.7c-3.4,0-6,1.9-6,4.5c0,4.8,8.5,4.3,8.5,7.1c0,1.3-1.2,1.9-2.6,1.9
	C109.1,109.5,107.2,107.8,107.2,107.8 M58.6,103.9c0-3.1,2.6-5.4,5.9-5.4c3.3,0,5.9,2.3,5.9,5.4c0,3.2-2.6,5.6-5.9,5.6
	C61.3,109.5,58.6,107.1,58.6,103.9 M55.3,103.9c0,4.6,4,8.2,9.3,8.2c5.3,0,9.3-3.6,9.3-8.2c0-4.5-4-8-9.3-8
	C59.3,95.9,55.3,99.4,55.3,103.9 M7.9,103.9c0,4.6,3.8,8.2,9.3,8.2c4.6,0,7.1-2.5,7.1-2.5l-1.7-2.1c0,0-2.1,2-5.2,2
	c-3.7,0-6.1-2.6-6.1-5.6c0-2.9,2.2-5.4,6-5.4c2.9,0,4.9,1.7,4.9,1.7l1.6-2.1c0,0-2.3-2.1-6.6-2.1C11.8,95.9,7.9,99.4,7.9,103.9
	 M84.8,38.5c0,13.8-11.9,24.2-32.6,24.2c-18,0-33.2-8.5-33.2-24c0-13.6,12.8-23.8,33.1-23.8C74.3,14.9,84.8,26.6,84.8,38.5
	 M98.7,38.6c0-14.1-14.9-28.4-46.7-28.4C20.8,10.2,5,23.6,5,39c0,17.2,19.4,28.5,47.1,28.5C81.2,67.5,98.7,55.1,98.7,38.6
	 M140.3,65.5l30.3-38.6h-10.8l-21.2,27.2L119,26.9h-13.8l27.1,35.3c-9.2,11.6-14.9,15.2-27.1,17.3v2.1C122.8,82,132,76.1,140.3,65.5
	 M187.8,36.1c0-3.4,5.9-6,14.9-6c13,0,17.8,4.4,20.1,6.6l3.5-0.6c-0.4-1.8-1.4-5.4-8.5-8.2c-5.1-2-11.7-2.7-17.2-2.7
	c-15.7,0-25.3,5.1-25.3,11.6c0,7.5,12,9.7,19,10.9c7.5,1.3,11.1,1.9,13.8,2.7c1.9,0.5,7,2.1,7,5.7c0,3.9-6.1,6.5-15.6,6.5
	c-7,0-13.7-1.4-18.2-3.6c-3.1-1.5-4.8-3.1-6-4.3c-1,0.2-2.6,0.5-3.7,0.7c0.7,1.8,1.9,5.8,9.2,8.9c5.5,2.2,12.3,3.1,19.1,3.1
	c7.5,0,14.6-0.8,20.2-3.4c4.8-2.1,7.7-5.2,7.7-8.9c0-8.3-14.1-10.6-21-11.7l-7.2-1.2C192.4,40.9,187.8,39.4,187.8,36.1 M262.2,67.5
	c8.1,0,12.4-2.1,15-3.4l-1.9-1.8c-2.3,0.6-4.8,1.3-8.3,1.3c-9.8,0-9.8-4.9-9.8-9.9V31.3h14.6v-4.4h-14.6V16.5h-12.4v10.3h-9.6v4.4
	h9.6v24.3c0,4.7,0.5,7.8,6.1,10C252.9,66.4,256.9,67.5,262.2,67.5 M334.2,42.2h-41.4c1.9-9,13-12.1,21.3-12.1
	C320.9,30.1,333.2,32.4,334.2,42.2 M346.4,46.4c0.1-2.8,0.5-11.1-10.2-16.7c-5.5-2.8-12.8-4.4-21.7-4.4c-18.7,0-34.7,7.7-34.7,21.3
	c0,13.9,16.4,20.9,34.8,20.9c23.9,0,29.2-9.7,30.6-12.5c-1-0.2-2.5-0.5-3.4-0.8c-2.5,2.1-9.4,8-24.2,8c-2.1,0-11.9,0-18.9-5.1
	c-5.3-4-5.7-8.5-6-10.7H346.4z M395,33.1v-6.3c-1.9-0.5-3.7-0.9-7.2-0.9c-10,0-15.4,4.4-17.8,6.3v-5.4h-12.6v39H370V36.2
	c1.4-1.1,6-4.7,14.3-4.7C389,31.5,392.8,32.6,395,33.1"/></svg>